# Blender v2.79 (sub 0) OBJ File: ''
# www.blender.org
mtllib ctrl.mtl
o Untitled_Untitled.007
v 0.844987 -0.064239 -0.602644
v 0.844987 0.064239 -0.602644
v 0.844987 0.064239 -1.092785
v 0.844987 -0.064239 -1.092785
v 0.977506 0.064239 -1.092785
v 0.977506 -0.064239 -1.092785
v 0.977506 0.064239 -0.602644
v 0.977506 -0.064239 -0.602644
v -0.977507 -0.064239 -0.602644
v -0.977507 0.064239 -0.602644
v -0.977507 0.064239 -1.092784
v -0.977507 -0.064239 -1.092784
v -0.844987 0.064239 -1.092784
v -0.844987 -0.064239 -1.092784
v -0.844987 0.064239 -0.602644
v -0.844987 -0.064239 -0.602644
v 1.345881 -0.064239 0.066260
v 1.345881 0.064239 0.066260
v 0.855741 0.064239 0.066260
v 0.855741 -0.064239 0.066260
v 0.855741 0.064239 -0.066260
v 0.855741 -0.064239 -0.066260
v 1.345881 0.064239 -0.066260
v 1.345881 -0.064239 -0.066260
v 1.313951 -0.064239 0.788469
v 1.313951 0.064239 0.788469
v 1.313951 0.064239 -0.195808
v 1.313951 -0.064239 -0.195808
v 1.446470 0.064239 -0.195808
v 1.446470 -0.064239 -0.195808
v 1.446470 0.064239 0.788469
v 1.446470 -0.064239 0.788469
v -1.000000 -0.064239 0.632638
v -1.000000 0.064239 0.632638
v -1.000000 0.064239 -0.632638
v -1.000000 -0.064239 -0.632638
v 1.000000 0.064239 -0.632638
v 1.000000 -0.064239 -0.632638
v 1.000000 0.064239 0.632638
v 1.000000 -0.064239 0.632638
v -1.345880 0.064239 0.066260
v -1.345880 -0.064239 0.066260
v -0.855740 -0.064239 0.066260
v -0.855740 0.064239 0.066260
v -0.855740 -0.064239 -0.066260
v -0.855740 0.064239 -0.066260
v -1.345880 -0.064239 -0.066260
v -1.345880 0.064239 -0.066260
v -1.313950 0.064239 0.788469
v -1.313950 -0.064239 0.788469
v -1.313950 -0.064239 -0.195808
v -1.313950 0.064239 -0.195808
v -1.446470 -0.064239 -0.195808
v -1.446470 0.064239 -0.195808
v -1.446470 -0.064239 0.788469
v -1.446470 0.064239 0.788469
vt 0.375000 0.000000
vt 0.625000 0.000000
vt 0.625000 0.250000
vt 0.375000 0.250000
vt 0.625000 0.500000
vt 0.375000 0.500000
vt 0.625000 0.750000
vt 0.375000 0.750000
vt 0.625000 1.000000
vt 0.375000 1.000000
vt 0.125000 0.500000
vt 0.125000 0.750000
vt 0.875000 0.500000
vt 0.875000 0.750000
vt 0.375000 0.000000
vt 0.625000 0.000000
vt 0.625000 0.250000
vt 0.375000 0.250000
vt 0.625000 0.500000
vt 0.375000 0.500000
vt 0.625000 0.750000
vt 0.375000 0.750000
vt 0.625000 1.000000
vt 0.375000 1.000000
vt 0.125000 0.500000
vt 0.125000 0.750000
vt 0.875000 0.500000
vt 0.875000 0.750000
vt 0.375000 0.000000
vt 0.625000 0.000000
vt 0.625000 0.250000
vt 0.375000 0.250000
vt 0.625000 0.500000
vt 0.375000 0.500000
vt 0.625000 0.750000
vt 0.375000 0.750000
vt 0.625000 1.000000
vt 0.375000 1.000000
vt 0.125000 0.500000
vt 0.125000 0.750000
vt 0.875000 0.500000
vt 0.875000 0.750000
vt 0.375000 0.000000
vt 0.625000 0.000000
vt 0.625000 0.250000
vt 0.375000 0.250000
vt 0.625000 0.500000
vt 0.375000 0.500000
vt 0.625000 0.750000
vt 0.375000 0.750000
vt 0.625000 1.000000
vt 0.375000 1.000000
vt 0.125000 0.500000
vt 0.125000 0.750000
vt 0.875000 0.500000
vt 0.875000 0.750000
vt 0.375000 0.000000
vt 0.625000 0.000000
vt 0.625000 0.250000
vt 0.375000 0.250000
vt 0.625000 0.500000
vt 0.375000 0.500000
vt 0.625000 0.750000
vt 0.375000 0.750000
vt 0.625000 1.000000
vt 0.375000 1.000000
vt 0.125000 0.500000
vt 0.125000 0.750000
vt 0.875000 0.500000
vt 0.875000 0.750000
vt 0.375000 0.000000
vt 0.625000 0.000000
vt 0.625000 0.250000
vt 0.375000 0.250000
vt 0.625000 0.500000
vt 0.375000 0.500000
vt 0.625000 0.750000
vt 0.375000 0.750000
vt 0.625000 1.000000
vt 0.375000 1.000000
vt 0.125000 0.500000
vt 0.125000 0.750000
vt 0.875000 0.500000
vt 0.875000 0.750000
vt 0.375000 0.000000
vt 0.625000 0.000000
vt 0.625000 0.250000
vt 0.375000 0.250000
vt 0.625000 0.500000
vt 0.375000 0.500000
vt 0.625000 0.750000
vt 0.375000 0.750000
vt 0.625000 1.000000
vt 0.375000 1.000000
vt 0.125000 0.500000
vt 0.125000 0.750000
vt 0.875000 0.500000
vt 0.875000 0.750000
vn -1.0000 0.0000 0.0000
vn 0.0000 0.0000 -1.0000
vn 1.0000 0.0000 0.0000
vn 0.0000 0.0000 1.0000
vn 0.0000 -1.0000 -0.0000
vn 0.0000 1.0000 0.0000
usemtl None.003
s 1
f 1/1/1 2/2/1 3/3/1 4/4/1
f 4/4/2 3/3/2 5/5/2 6/6/2
f 6/6/3 5/5/3 7/7/3 8/8/3
f 8/8/4 7/7/4 2/9/4 1/10/4
f 4/11/5 6/6/5 8/8/5 1/12/5
f 5/5/6 3/13/6 2/14/6 7/7/6
f 9/15/1 10/16/1 11/17/1 12/18/1
f 12/18/2 11/17/2 13/19/2 14/20/2
f 14/20/3 13/19/3 15/21/3 16/22/3
f 16/22/4 15/21/4 10/23/4 9/24/4
f 12/25/5 14/20/5 16/22/5 9/26/5
f 13/19/6 11/27/6 10/28/6 15/21/6
f 17/29/4 18/30/4 19/31/4 20/32/4
f 20/32/1 19/31/1 21/33/1 22/34/1
f 22/34/2 21/33/2 23/35/2 24/36/2
f 24/36/3 23/35/3 18/37/3 17/38/3
f 20/39/5 22/34/5 24/36/5 17/40/5
f 21/33/6 19/41/6 18/42/6 23/35/6
f 25/43/1 26/44/1 27/45/1 28/46/1
f 28/46/2 27/45/2 29/47/2 30/48/2
f 30/48/3 29/47/3 31/49/3 32/50/3
f 32/50/4 31/49/4 26/51/4 25/52/4
f 28/53/5 30/48/5 32/50/5 25/54/5
f 29/47/6 27/55/6 26/56/6 31/49/6
f 33/57/1 34/58/1 35/59/1 36/60/1
f 36/60/2 35/59/2 37/61/2 38/62/2
f 38/62/3 37/61/3 39/63/3 40/64/3
f 40/64/4 39/63/4 34/65/4 33/66/4
f 36/67/5 38/62/5 40/64/5 33/68/5
f 37/61/6 35/69/6 34/70/6 39/63/6
f 41/71/4 42/72/4 43/73/4 44/74/4
f 44/74/3 43/73/3 45/75/3 46/76/3
f 46/76/2 45/75/2 47/77/2 48/78/2
f 48/78/1 47/77/1 42/79/1 41/80/1
f 44/81/6 46/76/6 48/78/6 41/82/6
f 45/75/5 43/83/5 42/84/5 47/77/5
f 49/85/3 50/86/3 51/87/3 52/88/3
f 52/88/2 51/87/2 53/89/2 54/90/2
f 54/90/1 53/89/1 55/91/1 56/92/1
f 56/92/4 55/91/4 50/93/4 49/94/4
f 52/95/6 54/90/6 56/92/6 49/96/6
f 53/89/5 51/97/5 50/98/5 55/91/5
