# Blender v2.79 (sub 0) OBJ File: ''
# www.blender.org
mtllib main_2.mtl
o Untitled_Untitled.001
v -0.064398 0.978591 1.437698
v -0.064398 1.107387 1.437698
v -0.064398 1.107387 -1.437698
v -0.064398 0.978591 -1.437698
v 0.064398 1.107387 -1.437698
v 0.064398 0.978591 -1.437698
v 0.064398 1.107387 1.437698
v 0.064398 0.978591 1.437698
v 1.437698 0.978591 0.064398
v 1.437698 1.107387 0.064398
v -1.437698 1.107387 0.064398
v -1.437698 0.978591 0.064398
v -1.437698 1.107387 -0.064398
v -1.437698 0.978591 -0.064398
v 1.437698 1.107387 -0.064398
v 1.437698 0.978591 -0.064398
v -0.047608 0.723559 -0.047608
v -0.047608 0.723559 0.047608
v -0.047608 1.048013 0.047608
v -0.047608 1.048013 -0.047608
v 0.047608 1.048013 0.047608
v 0.047608 1.048013 -0.047608
v 0.047608 0.723559 0.047608
v 0.047608 0.723559 -0.047608
vt 0.375000 0.000000
vt 0.625000 0.000000
vt 0.625000 0.250000
vt 0.375000 0.250000
vt 0.625000 0.500000
vt 0.375000 0.500000
vt 0.625000 0.750000
vt 0.375000 0.750000
vt 0.625000 1.000000
vt 0.375000 1.000000
vt 0.125000 0.500000
vt 0.125000 0.750000
vt 0.875000 0.500000
vt 0.875000 0.750000
vt 0.375000 0.000000
vt 0.625000 0.000000
vt 0.625000 0.250000
vt 0.375000 0.250000
vt 0.625000 0.500000
vt 0.375000 0.500000
vt 0.625000 0.750000
vt 0.375000 0.750000
vt 0.625000 1.000000
vt 0.375000 1.000000
vt 0.125000 0.500000
vt 0.125000 0.750000
vt 0.875000 0.500000
vt 0.875000 0.750000
vt 0.375000 0.000000
vt 0.625000 0.000000
vt 0.625000 0.250000
vt 0.375000 0.250000
vt 0.625000 0.500000
vt 0.375000 0.500000
vt 0.625000 0.750000
vt 0.375000 0.750000
vt 0.625000 1.000000
vt 0.375000 1.000000
vt 0.125000 0.500000
vt 0.125000 0.750000
vt 0.875000 0.500000
vt 0.875000 0.750000
vn -1.0000 0.0000 0.0000
vn 0.0000 0.0000 -1.0000
vn 1.0000 0.0000 0.0000
vn 0.0000 0.0000 1.0000
vn 0.0000 -1.0000 -0.0000
vn 0.0000 1.0000 0.0000
usemtl Untitled
s 1
f 1/1/1 2/2/1 3/3/1 4/4/1
f 4/4/2 3/3/2 5/5/2 6/6/2
f 6/6/3 5/5/3 7/7/3 8/8/3
f 8/8/4 7/7/4 2/9/4 1/10/4
f 4/11/5 6/6/5 8/8/5 1/12/5
f 5/5/6 3/13/6 2/14/6 7/7/6
f 9/15/4 10/16/4 11/17/4 12/18/4
f 12/18/1 11/17/1 13/19/1 14/20/1
f 14/20/2 13/19/2 15/21/2 16/22/2
f 16/22/3 15/21/3 10/23/3 9/24/3
f 12/25/5 14/20/5 16/22/5 9/26/5
f 13/19/6 11/27/6 10/28/6 15/21/6
f 17/29/1 18/30/1 19/31/1 20/32/1
f 20/32/6 19/31/6 21/33/6 22/34/6
f 22/34/3 21/33/3 23/35/3 24/36/3
f 24/36/5 23/35/5 18/37/5 17/38/5
f 20/39/2 22/34/2 24/36/2 17/40/2
f 21/33/4 19/41/4 18/42/4 23/35/4
