# Blender v2.79 (sub 0) OBJ File: ''
# www.blender.org
mtllib ppsh41dj.mtl
o 1
v -0.372542 0.000000 -2.346139
v 0.372542 0.000000 -2.346139
v 0.372542 -0.457709 -2.301059
v -0.372542 -0.457709 -2.301059
v 0.372542 -0.897829 -2.167550
v -0.372542 -0.897829 -2.167550
v 0.372542 -1.303445 -1.950743
v -0.372542 -1.303445 -1.950743
v 0.372542 -1.658971 -1.658971
v -0.372542 -1.658971 -1.658971
v 0.372542 -1.950743 -1.303445
v -0.372542 -1.950743 -1.303445
v 0.372542 -2.167550 -0.897829
v -0.372542 -2.167550 -0.897829
v 0.372542 -2.301059 -0.457709
v -0.372542 -2.301059 -0.457709
v 0.372542 -2.346139 -0.000000
v -0.372542 -2.346139 -0.000000
v 0.372542 -2.301059 0.457709
v -0.372542 -2.301059 0.457709
v 0.372542 -2.167550 0.897828
v -0.372542 -2.167550 0.897828
v 0.372542 -1.950743 1.303445
v -0.372542 -1.950743 1.303445
v 0.372542 -1.658971 1.658971
v -0.372542 -1.658971 1.658971
v 0.372542 -1.303445 1.950743
v -0.372542 -1.303445 1.950743
v 0.372542 -0.897828 2.167550
v -0.372542 -0.897828 2.167550
v 0.372542 -0.457708 2.301059
v -0.372542 -0.457708 2.301059
v 0.372542 0.000001 2.346139
v -0.372542 0.000001 2.346139
v 0.372542 0.457710 2.301058
v -0.372542 0.457710 2.301058
v 0.372542 0.897830 2.167549
v -0.372542 0.897830 2.167549
v 0.372542 1.303446 1.950742
v -0.372542 1.303446 1.950742
v 0.372542 1.658972 1.658970
v -0.372542 1.658972 1.658970
v 0.372542 1.950744 1.303444
v -0.372542 1.950744 1.303444
v 0.372542 2.167551 0.897827
v -0.372542 2.167551 0.897827
v 0.372542 2.301059 0.457707
v -0.372542 2.301059 0.457707
v 0.372542 2.346139 -0.000002
v -0.372542 2.346139 -0.000002
v 0.372542 2.301058 -0.457711
v -0.372542 2.301058 -0.457711
v 0.372542 2.167549 -0.897831
v -0.372542 2.167549 -0.897831
v 0.372542 1.950742 -1.303447
v -0.372542 1.950742 -1.303447
v 0.372542 1.658969 -1.658973
v -0.372542 1.658969 -1.658973
v 0.372542 1.303442 -1.950745
v -0.372542 1.303442 -1.950745
v 0.372542 0.897825 -2.167551
v -0.372542 0.897825 -2.167551
v 0.372542 0.457705 -2.301059
v -0.372542 0.457705 -2.301059
v 0.293054 0.000000 -1.049575
v 0.626377 0.000000 -1.049575
v 0.626377 -0.204762 -1.029408
v 0.293054 -0.204762 -1.029408
v 0.626377 -0.401655 -0.969681
v 0.293054 -0.401655 -0.969681
v 0.626377 -0.583113 -0.872690
v 0.293054 -0.583113 -0.872690
v 0.626376 -0.742162 -0.742162
v 0.293054 -0.742162 -0.742162
v 0.626376 -0.872690 -0.583113
v 0.293054 -0.872690 -0.583113
v 0.626376 -0.969681 -0.401655
v 0.293054 -0.969681 -0.401655
v 0.626376 -1.029408 -0.204762
v 0.293054 -1.029408 -0.204762
v 0.626376 -1.049575 -0.000000
v 0.293054 -1.049575 -0.000000
v 0.626376 -1.029408 0.204762
v 0.293054 -1.029408 0.204762
v 0.626376 -0.969681 0.401655
v 0.293054 -0.969681 0.401655
v 0.626376 -0.872690 0.583113
v 0.293054 -0.872690 0.583113
v 0.626376 -0.742162 0.742162
v 0.293054 -0.742162 0.742162
v 0.626377 -0.583113 0.872690
v 0.293054 -0.583113 0.872690
v 0.626377 -0.401655 0.969681
v 0.293054 -0.401655 0.969681
v 0.626377 -0.204762 1.029408
v 0.293054 -0.204762 1.029408
v 0.626377 -0.000000 1.049575
v 0.293054 -0.000000 1.049575
v 0.626377 0.204762 1.029408
v 0.293054 0.204762 1.029408
v 0.626377 0.401655 0.969681
v 0.293054 0.401655 0.969681
v 0.626377 0.583113 0.872689
v 0.293054 0.583113 0.872689
v 0.626377 0.742162 0.742161
v 0.293054 0.742162 0.742161
v 0.626377 0.872690 0.583112
v 0.293054 0.872690 0.583112
v 0.626377 0.969681 0.401654
v 0.293054 0.969681 0.401654
v 0.626377 1.029408 0.204761
v 0.293054 1.029408 0.204761
v 0.626377 1.049575 -0.000001
v 0.293054 1.049575 -0.000001
v 0.626377 1.029407 -0.204763
v 0.293054 1.029407 -0.204763
v 0.626377 0.969680 -0.401656
v 0.293054 0.969680 -0.401656
v 0.626377 0.872689 -0.583114
v 0.293054 0.872689 -0.583114
v 0.626377 0.742160 -0.742162
v 0.293054 0.742160 -0.742162
v 0.626377 0.583111 -0.872690
v 0.293054 0.583111 -0.872690
v 0.626377 0.401653 -0.969681
v 0.293054 0.401653 -0.969681
v 0.626377 0.204760 -1.029408
v 0.293054 0.204760 -1.029408
v -0.648248 0.000000 -1.049575
v -0.314925 0.000000 -1.049575
v -0.314925 -0.204762 -1.029408
v -0.648248 -0.204762 -1.029408
v -0.314925 -0.401655 -0.969681
v -0.648248 -0.401655 -0.969681
v -0.314925 -0.583113 -0.872690
v -0.648248 -0.583113 -0.872690
v -0.314925 -0.742162 -0.742162
v -0.648248 -0.742162 -0.742162
v -0.314925 -0.872690 -0.583113
v -0.648248 -0.872690 -0.583113
v -0.314925 -0.969681 -0.401655
v -0.648248 -0.969681 -0.401655
v -0.314925 -1.029408 -0.204762
v -0.648248 -1.029408 -0.204762
v -0.314925 -1.049575 -0.000000
v -0.648248 -1.049575 -0.000000
v -0.314925 -1.029408 0.204762
v -0.648248 -1.029408 0.204762
v -0.314925 -0.969681 0.401655
v -0.648248 -0.969681 0.401655
v -0.314925 -0.872690 0.583113
v -0.648248 -0.872690 0.583113
v -0.314925 -0.742162 0.742162
v -0.648248 -0.742162 0.742162
v -0.314925 -0.583113 0.872690
v -0.648248 -0.583113 0.872690
v -0.314925 -0.401655 0.969681
v -0.648248 -0.401655 0.969681
v -0.314925 -0.204762 1.029408
v -0.648248 -0.204762 1.029408
v -0.314925 -0.000000 1.049575
v -0.648248 -0.000000 1.049575
v -0.314925 0.204762 1.029408
v -0.648248 0.204762 1.029408
v -0.314925 0.401655 0.969681
v -0.648248 0.401655 0.969681
v -0.314925 0.583113 0.872689
v -0.648248 0.583113 0.872689
v -0.314925 0.742162 0.742161
v -0.648248 0.742162 0.742161
v -0.314925 0.872690 0.583112
v -0.648248 0.872690 0.583112
v -0.314925 0.969681 0.401654
v -0.648248 0.969681 0.401654
v -0.314925 1.029408 0.204761
v -0.648248 1.029408 0.204761
v -0.314925 1.049575 -0.000001
v -0.648248 1.049575 -0.000001
v -0.314925 1.029407 -0.204763
v -0.648248 1.029407 -0.204763
v -0.314925 0.969680 -0.401656
v -0.648248 0.969680 -0.401656
v -0.314925 0.872689 -0.583114
v -0.648248 0.872689 -0.583114
v -0.314925 0.742160 -0.742162
v -0.648248 0.742160 -0.742162
v -0.314925 0.583111 -0.872690
v -0.648248 0.583111 -0.872690
v -0.314925 0.401653 -0.969681
v -0.648248 0.401653 -0.969681
v -0.314925 0.204760 -1.029408
v -0.648248 0.204760 -1.029408
vn 0.0000 -0.0980 -0.9952
vn 0.0000 -0.2903 -0.9569
vn 0.0000 -0.4714 -0.8819
vn 0.0000 -0.6344 -0.7730
vn 0.0000 -0.7730 -0.6344
vn 0.0000 -0.8819 -0.4714
vn 0.0000 -0.9569 -0.2903
vn 0.0000 -0.9952 -0.0980
vn 0.0000 -0.9952 0.0980
vn 0.0000 -0.9569 0.2903
vn 0.0000 -0.8819 0.4714
vn 0.0000 -0.7730 0.6344
vn 0.0000 -0.6344 0.7730
vn 0.0000 -0.4714 0.8819
vn 0.0000 -0.2903 0.9569
vn 0.0000 -0.0980 0.9952
vn 0.0000 0.0980 0.9952
vn 0.0000 0.2903 0.9569
vn 0.0000 0.4714 0.8819
vn 0.0000 0.6344 0.7730
vn 0.0000 0.7730 0.6344
vn 0.0000 0.8819 0.4714
vn 0.0000 0.9569 0.2903
vn 0.0000 0.9952 0.0980
vn 0.0000 0.9952 -0.0980
vn 0.0000 0.9569 -0.2903
vn 0.0000 0.8819 -0.4714
vn 0.0000 0.7730 -0.6344
vn 0.0000 0.6344 -0.7730
vn 0.0000 0.4714 -0.8819
vn 1.0000 0.0000 0.0000
vn 0.0000 0.2903 -0.9569
vn 0.0000 0.0980 -0.9952
vn -1.0000 0.0000 0.0000
usemtl 1
s 1
f 1//1 2//1 3//1 4//1
f 4//2 3//2 5//2 6//2
f 6//3 5//3 7//3 8//3
f 8//4 7//4 9//4 10//4
f 10//5 9//5 11//5 12//5
f 12//6 11//6 13//6 14//6
f 14//7 13//7 15//7 16//7
f 16//8 15//8 17//8 18//8
f 18//9 17//9 19//9 20//9
f 20//10 19//10 21//10 22//10
f 22//11 21//11 23//11 24//11
f 24//12 23//12 25//12 26//12
f 26//13 25//13 27//13 28//13
f 28//14 27//14 29//14 30//14
f 30//15 29//15 31//15 32//15
f 32//16 31//16 33//16 34//16
f 34//17 33//17 35//17 36//17
f 36//18 35//18 37//18 38//18
f 38//19 37//19 39//19 40//19
f 40//20 39//20 41//20 42//20
f 42//21 41//21 43//21 44//21
f 44//22 43//22 45//22 46//22
f 46//23 45//23 47//23 48//23
f 48//24 47//24 49//24 50//24
f 50//25 49//25 51//25 52//25
f 52//26 51//26 53//26 54//26
f 54//27 53//27 55//27 56//27
f 56//28 55//28 57//28 58//28
f 58//29 57//29 59//29 60//29
f 60//30 59//30 61//30 62//30
f 3//31 2//31 63//31 61//31 59//31 57//31 55//31 53//31 51//31 49//31 47//31 45//31 43//31 41//31 39//31 37//31 35//31 33//31 31//31 29//31 27//31 25//31 23//31 21//31 19//31 17//31 15//31 13//31 11//31 9//31 7//31 5//31
f 62//32 61//32 63//32 64//32
f 64//33 63//33 2//33 1//33
f 1//34 4//34 6//34 8//34 10//34 12//34 14//34 16//34 18//34 20//34 22//34 24//34 26//34 28//34 30//34 32//34 34//34 36//34 38//34 40//34 42//34 44//34 46//34 48//34 50//34 52//34 54//34 56//34 58//34 60//34 62//34 64//34
f 65//1 66//1 67//1 68//1
f 68//2 67//2 69//2 70//2
f 70//3 69//3 71//3 72//3
f 72//4 71//4 73//4 74//4
f 74//5 73//5 75//5 76//5
f 76//6 75//6 77//6 78//6
f 78//7 77//7 79//7 80//7
f 80//8 79//8 81//8 82//8
f 82//9 81//9 83//9 84//9
f 84//10 83//10 85//10 86//10
f 86//11 85//11 87//11 88//11
f 88//12 87//12 89//12 90//12
f 90//13 89//13 91//13 92//13
f 92//14 91//14 93//14 94//14
f 94//15 93//15 95//15 96//15
f 96//16 95//16 97//16 98//16
f 98//17 97//17 99//17 100//17
f 100//18 99//18 101//18 102//18
f 102//19 101//19 103//19 104//19
f 104//20 103//20 105//20 106//20
f 106//21 105//21 107//21 108//21
f 108//22 107//22 109//22 110//22
f 110//23 109//23 111//23 112//23
f 112//24 111//24 113//24 114//24
f 114//25 113//25 115//25 116//25
f 116//26 115//26 117//26 118//26
f 118//27 117//27 119//27 120//27
f 120//28 119//28 121//28 122//28
f 122//29 121//29 123//29 124//29
f 124//30 123//30 125//30 126//30
f 67//31 66//31 127//31 125//31 123//31 121//31 119//31 117//31 115//31 113//31 111//31 109//31 107//31 105//31 103//31 101//31 99//31 97//31 95//31 93//31 91//31 89//31 87//31 85//31 83//31 81//31 79//31 77//31 75//31 73//31 71//31 69//31
f 126//32 125//32 127//32 128//32
f 128//33 127//33 66//33 65//33
f 65//34 68//34 70//34 72//34 74//34 76//34 78//34 80//34 82//34 84//34 86//34 88//34 90//34 92//34 94//34 96//34 98//34 100//34 102//34 104//34 106//34 108//34 110//34 112//34 114//34 116//34 118//34 120//34 122//34 124//34 126//34 128//34
f 129//1 130//1 131//1 132//1
f 132//2 131//2 133//2 134//2
f 134//3 133//3 135//3 136//3
f 136//4 135//4 137//4 138//4
f 138//5 137//5 139//5 140//5
f 140//6 139//6 141//6 142//6
f 142//7 141//7 143//7 144//7
f 144//8 143//8 145//8 146//8
f 146//9 145//9 147//9 148//9
f 148//10 147//10 149//10 150//10
f 150//11 149//11 151//11 152//11
f 152//12 151//12 153//12 154//12
f 154//13 153//13 155//13 156//13
f 156//14 155//14 157//14 158//14
f 158//15 157//15 159//15 160//15
f 160//16 159//16 161//16 162//16
f 162//17 161//17 163//17 164//17
f 164//18 163//18 165//18 166//18
f 166//19 165//19 167//19 168//19
f 168//20 167//20 169//20 170//20
f 170//21 169//21 171//21 172//21
f 172//22 171//22 173//22 174//22
f 174//23 173//23 175//23 176//23
f 176//24 175//24 177//24 178//24
f 178//25 177//25 179//25 180//25
f 180//26 179//26 181//26 182//26
f 182//27 181//27 183//27 184//27
f 184//28 183//28 185//28 186//28
f 186//29 185//29 187//29 188//29
f 188//30 187//30 189//30 190//30
f 131//31 130//31 191//31 189//31 187//31 185//31 183//31 181//31 179//31 177//31 175//31 173//31 171//31 169//31 167//31 165//31 163//31 161//31 159//31 157//31 155//31 153//31 151//31 149//31 147//31 145//31 143//31 141//31 139//31 137//31 135//31 133//31
f 190//32 189//32 191//32 192//32
f 192//33 191//33 130//33 129//33
f 129//34 132//34 134//34 136//34 138//34 140//34 142//34 144//34 146//34 148//34 150//34 152//34 154//34 156//34 158//34 160//34 162//34 164//34 166//34 168//34 170//34 172//34 174//34 176//34 178//34 180//34 182//34 184//34 186//34 188//34 190//34 192//34
