# Blender v2.79 (sub 0) OBJ File: ''
# www.blender.org
mtllib t34pt.mtl
o Cube.061_Cube.067
v 1.537640 -0.103435 1.745555
v 1.537640 1.714494 1.745555
v 1.537640 -0.103435 -1.745555
v 1.537640 1.714494 -1.745555
v 3.253840 1.132009 0.867867
v 3.253840 1.738800 0.867867
v 3.253840 1.132009 -0.867867
v 3.253840 1.738800 -0.867867
v -1.791424 -0.666936 1.342473
v -1.791424 1.714494 1.342473
v -1.791424 -0.666936 -1.342473
v -1.791424 1.714494 -1.342473
v 1.565071 -0.666936 1.745555
v 1.565071 1.714494 1.745555
v 1.565071 -0.666936 -1.745555
v 1.565071 1.714494 -1.745555
v 2.566875 1.627966 -0.902880
v 2.566875 2.020023 -0.902880
v 2.605119 1.627966 -0.899113
v 2.605119 2.020023 -0.899113
v 2.641892 1.627966 -0.887958
v 2.641892 2.020023 -0.887958
v 2.675783 1.627966 -0.869843
v 2.675783 2.020023 -0.869843
v 2.705488 1.627966 -0.845464
v 2.705488 2.020023 -0.845464
v 2.729867 1.627966 -0.815759
v 2.729867 2.020023 -0.815759
v 2.747982 1.627966 -0.781868
v 2.747982 2.020023 -0.781868
v 2.759137 1.627966 -0.745095
v 2.759137 2.020023 -0.745095
v 2.762904 1.627966 -0.706851
v 2.762904 2.020023 -0.706851
v 2.759137 1.627966 -0.668608
v 2.759137 2.020023 -0.668608
v 2.747982 1.627966 -0.631835
v 2.747982 2.020023 -0.631835
v 2.729867 1.627966 -0.597944
v 2.729867 2.020023 -0.597944
v 2.705488 1.627966 -0.568238
v 2.705488 2.020023 -0.568238
v 2.675783 1.627966 -0.543860
v 2.675783 2.020023 -0.543860
v 2.641892 1.627966 -0.525745
v 2.641892 2.020023 -0.525745
v 2.605119 1.627966 -0.514590
v 2.605119 2.020023 -0.514590
v 2.566875 1.627966 -0.510823
v 2.566875 2.020023 -0.510823
v 2.528632 1.627966 -0.514590
v 2.528632 2.020023 -0.514590
v 2.491858 1.627966 -0.525745
v 2.491858 2.020023 -0.525745
v 2.457968 1.627966 -0.543860
v 2.457968 2.020023 -0.543860
v 2.428262 1.627966 -0.568238
v 2.428262 2.020023 -0.568238
v 2.403884 1.627966 -0.597944
v 2.403884 2.020023 -0.597944
v 2.385769 1.627966 -0.631835
v 2.385769 2.020023 -0.631835
v 2.374614 1.627966 -0.668608
v 2.374614 2.020023 -0.668608
v 2.370847 1.627966 -0.706852
v 2.370847 2.020023 -0.706852
v 2.374614 1.627966 -0.745095
v 2.374614 2.020023 -0.745095
v 2.385769 1.627966 -0.781868
v 2.385769 2.020023 -0.781868
v 2.403884 1.627966 -0.815759
v 2.403884 2.020023 -0.815759
v 2.428262 1.627966 -0.845464
v 2.428262 2.020023 -0.845464
v 2.457968 1.627966 -0.869843
v 2.457968 2.020023 -0.869843
v 2.491859 1.627966 -0.887958
v 2.491859 2.020023 -0.887958
v 2.528632 1.627966 -0.899113
v 2.528632 2.020023 -0.899113
v 0.984572 0.994903 -1.282201
v 0.984572 1.790599 -1.282201
v 1.062188 0.994903 -1.274557
v 1.062188 1.790599 -1.274557
v 1.136822 0.994903 -1.251917
v 1.136822 1.790599 -1.251917
v 1.205604 0.994903 -1.215152
v 1.205604 1.790599 -1.215152
v 1.265893 0.994903 -1.165674
v 1.265893 1.790599 -1.165674
v 1.315371 0.994903 -1.105386
v 1.315371 1.790599 -1.105386
v 1.352136 0.994903 -1.036603
v 1.352136 1.790599 -1.036603
v 1.374775 0.994903 -0.961969
v 1.374775 1.790599 -0.961969
v 1.382420 0.994903 -0.884353
v 1.382420 1.790599 -0.884353
v 1.374775 0.994903 -0.806737
v 1.374775 1.790599 -0.806737
v 1.352136 0.994903 -0.732103
v 1.352136 1.790599 -0.732103
v 1.315371 0.994903 -0.663320
v 1.315371 1.790599 -0.663320
v 1.265893 0.994903 -0.603032
v 1.265893 1.790599 -0.603032
v 1.205604 0.994903 -0.553554
v 1.205604 1.790599 -0.553554
v 1.136822 0.994903 -0.516789
v 1.136822 1.790599 -0.516789
v 1.062188 0.994903 -0.494149
v 1.062188 1.790599 -0.494149
v 0.984571 0.994903 -0.486505
v 0.984571 1.790599 -0.486505
v 0.906955 0.994903 -0.494149
v 0.906955 1.790599 -0.494149
v 0.832322 0.994903 -0.516789
v 0.832322 1.790599 -0.516789
v 0.763539 0.994903 -0.553554
v 0.763539 1.790599 -0.553554
v 0.703250 0.994903 -0.603032
v 0.703250 1.790599 -0.603032
v 0.653773 0.994903 -0.663321
v 0.653773 1.790599 -0.663321
v 0.617008 0.994903 -0.732103
v 0.617008 1.790599 -0.732103
v 0.594368 0.994903 -0.806737
v 0.594368 1.790599 -0.806737
v 0.586724 0.994903 -0.884353
v 0.586724 1.790599 -0.884353
v 0.594368 0.994903 -0.961970
v 0.594368 1.790599 -0.961970
v 0.617008 0.994903 -1.036603
v 0.617008 1.790599 -1.036603
v 0.653773 0.994903 -1.105386
v 0.653773 1.790599 -1.105386
v 0.703251 0.994903 -1.165675
v 0.703251 1.790599 -1.165675
v 0.763540 0.994903 -1.215152
v 0.763540 1.790599 -1.215152
v 0.832322 0.994903 -1.251917
v 0.832322 1.790599 -1.251917
v 0.906956 0.994903 -1.274557
v 0.906956 1.790599 -1.274557
v 0.984572 0.994903 0.486505
v 0.984572 1.790599 0.486505
v 1.062188 0.994903 0.494149
v 1.062188 1.790599 0.494149
v 1.136822 0.994903 0.516789
v 1.136822 1.790599 0.516789
v 1.205604 0.994903 0.553554
v 1.205604 1.790599 0.553554
v 1.265893 0.994903 0.603032
v 1.265893 1.790599 0.603032
v 1.315371 0.994903 0.663320
v 1.315371 1.790599 0.663320
v 1.352136 0.994903 0.732103
v 1.352136 1.790599 0.732103
v 1.374775 0.994903 0.806736
v 1.374775 1.790599 0.806736
v 1.382420 0.994903 0.884353
v 1.382420 1.790599 0.884353
v 1.374775 0.994903 0.961969
v 1.374775 1.790599 0.961969
v 1.352136 0.994903 1.036603
v 1.352136 1.790599 1.036603
v 1.315371 0.994903 1.105385
v 1.315371 1.790599 1.105385
v 1.265893 0.994903 1.165674
v 1.265893 1.790599 1.165674
v 1.205604 0.994903 1.215151
v 1.205604 1.790599 1.215151
v 1.136822 0.994903 1.251917
v 1.136822 1.790599 1.251917
v 1.062188 0.994903 1.274557
v 1.062188 1.790599 1.274557
v 0.984571 0.994903 1.282201
v 0.984571 1.790599 1.282201
v 0.906955 0.994903 1.274556
v 0.906955 1.790599 1.274556
v 0.832322 0.994903 1.251916
v 0.832322 1.790599 1.251916
v 0.763539 0.994903 1.215151
v 0.763539 1.790599 1.215151
v 0.703250 0.994903 1.165674
v 0.703250 1.790599 1.165674
v 0.653773 0.994903 1.105385
v 0.653773 1.790599 1.105385
v 0.617008 0.994903 1.036602
v 0.617008 1.790599 1.036602
v 0.594368 0.994903 0.961969
v 0.594368 1.790599 0.961969
v 0.586724 0.994903 0.884352
v 0.586724 1.790599 0.884352
v 0.594368 0.994903 0.806736
v 0.594368 1.790599 0.806736
v 0.617008 0.994903 0.732103
v 0.617008 1.790599 0.732103
v 0.653773 0.994903 0.663320
v 0.653773 1.790599 0.663320
v 0.703251 0.994903 0.603031
v 0.703251 1.790599 0.603031
v 0.763540 0.994903 0.553554
v 0.763540 1.790599 0.553554
v 0.832322 0.994903 0.516789
v 0.832322 1.790599 0.516789
v 0.906956 0.994903 0.494149
v 0.906956 1.790599 0.494149
vn -1.0000 0.0000 0.0000
vn 0.4553 0.0000 -0.8903
vn 1.0000 0.0000 0.0000
vn 0.4553 0.0000 0.8903
vn 0.5842 -0.8116 0.0000
vn -0.0142 0.9999 0.0000
vn -0.1192 0.0000 -0.9929
vn -0.1192 0.0000 0.9929
vn 0.0000 -1.0000 0.0000
vn 0.0000 1.0000 0.0000
vn 0.0980 0.0000 -0.9952
vn 0.2903 0.0000 -0.9569
vn 0.4714 0.0000 -0.8819
vn 0.6344 0.0000 -0.7730
vn 0.7730 0.0000 -0.6344
vn 0.8819 0.0000 -0.4714
vn 0.9569 0.0000 -0.2903
vn 0.9952 0.0000 -0.0980
vn 0.9952 0.0000 0.0980
vn 0.9569 0.0000 0.2903
vn 0.8819 0.0000 0.4714
vn 0.7730 0.0000 0.6344
vn 0.6344 0.0000 0.7730
vn 0.4714 0.0000 0.8819
vn 0.2903 0.0000 0.9569
vn 0.0980 0.0000 0.9952
vn -0.0980 0.0000 0.9952
vn -0.2903 0.0000 0.9569
vn -0.4714 0.0000 0.8819
vn -0.6344 0.0000 0.7730
vn -0.7730 0.0000 0.6344
vn -0.8819 0.0000 0.4714
vn -0.9569 0.0000 0.2903
vn -0.9952 0.0000 0.0980
vn -0.9952 0.0000 -0.0980
vn -0.9569 0.0000 -0.2903
vn -0.8819 0.0000 -0.4714
vn -0.7730 0.0000 -0.6344
vn -0.6344 0.0000 -0.7730
vn -0.4714 0.0000 -0.8819
vn -0.2903 0.0000 -0.9569
vn -0.0980 0.0000 -0.9952
usemtl Material.021
s off
f 1//1 2//1 4//1 3//1
f 3//2 4//2 8//2 7//2
f 7//3 8//3 6//3 5//3
f 5//4 6//4 2//4 1//4
f 3//5 7//5 5//5 1//5
f 8//6 4//6 2//6 6//6
f 9//1 10//1 12//1 11//1
f 11//7 12//7 16//7 15//7
f 15//3 16//3 14//3 13//3
f 13//8 14//8 10//8 9//8
f 11//9 15//9 13//9 9//9
f 16//10 12//10 10//10 14//10
usemtl Material.020
f 17//11 18//11 20//11 19//11
f 19//12 20//12 22//12 21//12
f 21//13 22//13 24//13 23//13
f 23//14 24//14 26//14 25//14
f 25//15 26//15 28//15 27//15
f 27//16 28//16 30//16 29//16
f 29//17 30//17 32//17 31//17
f 31//18 32//18 34//18 33//18
f 33//19 34//19 36//19 35//19
f 35//20 36//20 38//20 37//20
f 37//21 38//21 40//21 39//21
f 39//22 40//22 42//22 41//22
f 41//23 42//23 44//23 43//23
f 43//24 44//24 46//24 45//24
f 45//25 46//25 48//25 47//25
f 47//26 48//26 50//26 49//26
f 49//27 50//27 52//27 51//27
f 51//28 52//28 54//28 53//28
f 53//29 54//29 56//29 55//29
f 55//30 56//30 58//30 57//30
f 57//31 58//31 60//31 59//31
f 59//32 60//32 62//32 61//32
f 61//33 62//33 64//33 63//33
f 63//34 64//34 66//34 65//34
f 65//35 66//35 68//35 67//35
f 67//36 68//36 70//36 69//36
f 69//37 70//37 72//37 71//37
f 71//38 72//38 74//38 73//38
f 73//39 74//39 76//39 75//39
f 75//40 76//40 78//40 77//40
f 20//10 18//10 80//10 78//10 76//10 74//10 72//10 70//10 68//10 66//10 64//10 62//10 60//10 58//10 56//10 54//10 52//10 50//10 48//10 46//10 44//10 42//10 40//10 38//10 36//10 34//10 32//10 30//10 28//10 26//10 24//10 22//10
f 77//41 78//41 80//41 79//41
f 79//42 80//42 18//42 17//42
f 17//9 19//9 21//9 23//9 25//9 27//9 29//9 31//9 33//9 35//9 37//9 39//9 41//9 43//9 45//9 47//9 49//9 51//9 53//9 55//9 57//9 59//9 61//9 63//9 65//9 67//9 69//9 71//9 73//9 75//9 77//9 79//9
f 81//11 82//11 84//11 83//11
f 83//12 84//12 86//12 85//12
f 85//13 86//13 88//13 87//13
f 87//14 88//14 90//14 89//14
f 89//15 90//15 92//15 91//15
f 91//16 92//16 94//16 93//16
f 93//17 94//17 96//17 95//17
f 95//18 96//18 98//18 97//18
f 97//19 98//19 100//19 99//19
f 99//20 100//20 102//20 101//20
f 101//21 102//21 104//21 103//21
f 103//22 104//22 106//22 105//22
f 105//23 106//23 108//23 107//23
f 107//24 108//24 110//24 109//24
f 109//25 110//25 112//25 111//25
f 111//26 112//26 114//26 113//26
f 113//27 114//27 116//27 115//27
f 115//28 116//28 118//28 117//28
f 117//29 118//29 120//29 119//29
f 119//30 120//30 122//30 121//30
f 121//31 122//31 124//31 123//31
f 123//32 124//32 126//32 125//32
f 125//33 126//33 128//33 127//33
f 127//34 128//34 130//34 129//34
f 129//35 130//35 132//35 131//35
f 131//36 132//36 134//36 133//36
f 133//37 134//37 136//37 135//37
f 135//38 136//38 138//38 137//38
f 137//39 138//39 140//39 139//39
f 139//40 140//40 142//40 141//40
f 84//10 82//10 144//10 142//10 140//10 138//10 136//10 134//10 132//10 130//10 128//10 126//10 124//10 122//10 120//10 118//10 116//10 114//10 112//10 110//10 108//10 106//10 104//10 102//10 100//10 98//10 96//10 94//10 92//10 90//10 88//10 86//10
f 141//41 142//41 144//41 143//41
f 143//42 144//42 82//42 81//42
f 81//9 83//9 85//9 87//9 89//9 91//9 93//9 95//9 97//9 99//9 101//9 103//9 105//9 107//9 109//9 111//9 113//9 115//9 117//9 119//9 121//9 123//9 125//9 127//9 129//9 131//9 133//9 135//9 137//9 139//9 141//9 143//9
f 145//11 146//11 148//11 147//11
f 147//12 148//12 150//12 149//12
f 149//13 150//13 152//13 151//13
f 151//14 152//14 154//14 153//14
f 153//15 154//15 156//15 155//15
f 155//16 156//16 158//16 157//16
f 157//17 158//17 160//17 159//17
f 159//18 160//18 162//18 161//18
f 161//19 162//19 164//19 163//19
f 163//20 164//20 166//20 165//20
f 165//21 166//21 168//21 167//21
f 167//22 168//22 170//22 169//22
f 169//23 170//23 172//23 171//23
f 171//24 172//24 174//24 173//24
f 173//25 174//25 176//25 175//25
f 175//26 176//26 178//26 177//26
f 177//27 178//27 180//27 179//27
f 179//28 180//28 182//28 181//28
f 181//29 182//29 184//29 183//29
f 183//30 184//30 186//30 185//30
f 185//31 186//31 188//31 187//31
f 187//32 188//32 190//32 189//32
f 189//33 190//33 192//33 191//33
f 191//34 192//34 194//34 193//34
f 193//35 194//35 196//35 195//35
f 195//36 196//36 198//36 197//36
f 197//37 198//37 200//37 199//37
f 199//38 200//38 202//38 201//38
f 201//39 202//39 204//39 203//39
f 203//40 204//40 206//40 205//40
f 148//10 146//10 208//10 206//10 204//10 202//10 200//10 198//10 196//10 194//10 192//10 190//10 188//10 186//10 184//10 182//10 180//10 178//10 176//10 174//10 172//10 170//10 168//10 166//10 164//10 162//10 160//10 158//10 156//10 154//10 152//10 150//10
f 205//41 206//41 208//41 207//41
f 207//42 208//42 146//42 145//42
f 145//9 147//9 149//9 151//9 153//9 155//9 157//9 159//9 161//9 163//9 165//9 167//9 169//9 171//9 173//9 175//9 177//9 179//9 181//9 183//9 185//9 187//9 189//9 191//9 193//9 195//9 197//9 199//9 201//9 203//9 205//9 207//9
