# Blender v2.79 (sub 0) OBJ File: ''
# www.blender.org
mtllib ptrd41zd.mtl
o Cone
v 0.615767 -0.000000 0.996503
v 0.603935 -0.120130 0.996503
v 0.568895 -0.235644 0.996503
v 0.511992 -0.342102 0.996503
v 0.435413 -0.435413 0.996503
v 0.342102 -0.511992 0.996503
v 0.235644 -0.568895 0.996503
v 0.120130 -0.603935 0.996503
v 0.000000 -0.615767 0.996503
v -0.120130 -0.603935 0.996503
v -0.235644 -0.568895 0.996503
v -0.342102 -0.511992 0.996503
v -0.435413 -0.435413 0.996503
v -0.511992 -0.342102 0.996503
v -0.568895 -0.235644 0.996503
v -0.603935 -0.120130 0.996503
v -0.615767 0.000000 0.996503
v -0.603935 0.120130 0.996503
v -0.568894 0.235644 0.996503
v -0.511991 0.342102 0.996503
v -0.435413 0.435413 0.996503
v -0.342101 0.511992 0.996503
v -0.235643 0.568895 0.996503
v -0.000000 0.000000 6.728861
v -0.120130 0.603935 0.996503
v 0.000001 0.615767 0.996503
v 0.120131 0.603935 0.996503
v 0.235645 0.568894 0.996503
v 0.342103 0.511991 0.996503
v 0.435414 0.435412 0.996503
v 0.511992 0.342101 0.996503
v 0.568895 0.235643 0.996503
v 0.603936 0.120129 0.996503
v 1.000000 -0.000000 -4.710159
v 1.000000 -0.000000 1.872777
v 0.980785 -0.195090 -4.710159
v 0.980785 -0.195090 1.872777
v 0.923880 -0.382683 -4.710159
v 0.923879 -0.382683 1.872777
v 0.831470 -0.555570 -4.710159
v 0.831469 -0.555570 1.872777
v 0.707107 -0.707107 -4.710159
v 0.707107 -0.707107 1.872777
v 0.555570 -0.831470 -4.710159
v 0.555570 -0.831470 1.872777
v 0.382684 -0.923880 -4.710159
v 0.382683 -0.923880 1.872777
v 0.195090 -0.980785 -4.710159
v 0.195090 -0.980785 1.872777
v 0.000000 -1.000000 -4.710159
v -0.000000 -1.000000 1.872777
v -0.195090 -0.980785 -4.710159
v -0.195090 -0.980785 1.872777
v -0.382683 -0.923880 -4.710159
v -0.382683 -0.923880 1.872777
v -0.555570 -0.831470 -4.710159
v -0.555570 -0.831470 1.872777
v -0.707107 -0.707107 -4.710159
v -0.707107 -0.707107 1.872777
v -0.831470 -0.555570 -4.710159
v -0.831470 -0.555570 1.872777
v -0.923880 -0.382683 -4.710159
v -0.923880 -0.382683 1.872777
v -0.980785 -0.195090 -4.710159
v -0.980785 -0.195090 1.872777
v -1.000000 0.000000 -4.710159
v -1.000000 0.000000 1.872777
v -0.980785 0.195091 -4.710159
v -0.980785 0.195091 1.872777
v -0.923879 0.382684 -4.710159
v -0.923880 0.382684 1.872777
v -0.831469 0.555571 -4.710159
v -0.831470 0.555571 1.872777
v -0.707106 0.707107 -4.710159
v -0.707106 0.707107 1.872777
v -0.555569 0.831470 -4.710159
v -0.555570 0.831470 1.872777
v -0.382683 0.923880 -4.710159
v -0.382683 0.923880 1.872777
v -0.195089 0.980785 -4.710159
v -0.195090 0.980785 1.872777
v 0.000001 1.000000 -4.710159
v 0.000001 1.000000 1.872777
v 0.195092 0.980785 -4.710159
v 0.195091 0.980785 1.872777
v 0.382685 0.923879 -4.710159
v 0.382684 0.923879 1.872777
v 0.555571 0.831469 -4.710159
v 0.555571 0.831469 1.872777
v 0.707108 0.707106 -4.710159
v 0.707108 0.707106 1.872777
v 0.831471 0.555569 -4.710159
v 0.831470 0.555569 1.872777
v 0.923880 0.382682 -4.710159
v 0.923880 0.382682 1.872777
v 0.980786 0.195089 -4.710159
v 0.980785 0.195089 1.872777
v 1.000000 -0.000000 1.784942
v 0.607055 -0.000000 3.260028
v 0.980785 -0.195090 1.784942
v 0.595391 -0.118431 3.260028
v 0.923880 -0.382683 1.784942
v 0.560846 -0.232310 3.260028
v 0.831470 -0.555570 1.784942
v 0.504748 -0.337262 3.260028
v 0.707107 -0.707107 1.784942
v 0.429253 -0.429253 3.260028
v 0.555570 -0.831470 1.784942
v 0.337262 -0.504748 3.260028
v 0.382683 -0.923880 1.784942
v 0.232310 -0.560846 3.260028
v 0.195090 -0.980785 1.784942
v 0.118431 -0.595391 3.260028
v 0.000000 -1.000000 1.784942
v 0.000000 -0.607055 3.260028
v -0.195090 -0.980785 1.784942
v -0.118430 -0.595391 3.260028
v -0.382683 -0.923880 1.784942
v -0.232310 -0.560846 3.260028
v -0.555570 -0.831470 1.784942
v -0.337262 -0.504748 3.260028
v -0.707107 -0.707107 1.784942
v -0.429253 -0.429253 3.260028
v -0.831470 -0.555570 1.784942
v -0.504748 -0.337262 3.260028
v -0.923880 -0.382683 1.784942
v -0.560846 -0.232310 3.260028
v -0.980785 -0.195090 1.784942
v -0.595391 -0.118430 3.260028
v -1.000000 0.000000 1.784942
v -0.607055 0.000000 3.260028
v -0.980785 0.195091 1.784942
v -0.595391 0.118431 3.260028
v -0.923879 0.382684 1.784942
v -0.560846 0.232310 3.260028
v -0.831469 0.555571 1.784942
v -0.504748 0.337262 3.260028
v -0.707106 0.707107 1.784942
v -0.429252 0.429253 3.260028
v -0.555570 0.831470 1.784942
v -0.337261 0.504748 3.260028
v -0.382683 0.923880 1.784942
v -0.232309 0.560846 3.260028
v -0.195089 0.980785 1.784942
v -0.118430 0.595391 3.260028
v 0.000001 1.000000 1.784942
v 0.000001 0.607055 3.260028
v 0.195091 0.980785 1.784942
v 0.118431 0.595391 3.260028
v 0.382685 0.923879 1.784942
v 0.232311 0.560845 3.260028
v 0.555571 0.831469 1.784942
v 0.337263 0.504747 3.260028
v 0.707108 0.707106 1.784942
v 0.429253 0.429252 3.260028
v 0.831470 0.555569 1.784942
v 0.504748 0.337261 3.260028
v 0.923880 0.382682 1.784942
v 0.560846 0.232309 3.260028
v 0.980786 0.195089 1.784942
v 0.595391 0.118430 3.260028
vn 0.9895 -0.0975 0.1063
vn 0.9515 -0.2886 0.1063
vn 0.8769 -0.4687 0.1063
vn 0.7686 -0.6308 0.1063
vn 0.6308 -0.7686 0.1063
vn 0.4687 -0.8769 0.1063
vn 0.2886 -0.9515 0.1063
vn 0.0975 -0.9895 0.1063
vn -0.0975 -0.9895 0.1063
vn -0.2886 -0.9515 0.1063
vn -0.4687 -0.8769 0.1063
vn -0.6308 -0.7686 0.1063
vn -0.7686 -0.6308 0.1063
vn -0.8769 -0.4687 0.1063
vn -0.9515 -0.2886 0.1063
vn -0.9895 -0.0975 0.1063
vn -0.9895 0.0975 0.1063
vn -0.9515 0.2886 0.1063
vn -0.8769 0.4687 0.1063
vn -0.7686 0.6308 0.1063
vn -0.6308 0.7686 0.1063
vn -0.4687 0.8769 0.1063
vn -0.2886 0.9515 0.1063
vn -0.0975 0.9895 0.1063
vn 0.0975 0.9895 0.1063
vn 0.2886 0.9515 0.1063
vn 0.4687 0.8769 0.1063
vn 0.6308 0.7686 0.1063
vn 0.7686 0.6308 0.1063
vn 0.8769 0.4687 0.1063
vn 0.9515 0.2886 0.1063
vn 0.9895 0.0975 0.1063
vn -0.0000 0.0000 -1.0000
vn 0.9952 -0.0980 0.0000
vn 0.9569 -0.2903 0.0000
vn 0.8819 -0.4714 0.0000
vn 0.7730 -0.6344 0.0000
vn 0.6344 -0.7730 0.0000
vn 0.4714 -0.8819 0.0000
vn 0.2903 -0.9569 0.0000
vn 0.0980 -0.9952 -0.0000
vn -0.0980 -0.9952 0.0000
vn -0.2903 -0.9569 -0.0000
vn -0.4714 -0.8819 -0.0000
vn -0.6344 -0.7730 -0.0000
vn -0.7730 -0.6344 -0.0000
vn -0.8819 -0.4714 -0.0000
vn -0.9569 -0.2903 -0.0000
vn -0.9952 -0.0980 -0.0000
vn -0.9952 0.0980 -0.0000
vn -0.9569 0.2903 -0.0000
vn -0.8819 0.4714 -0.0000
vn -0.7730 0.6344 -0.0000
vn -0.6344 0.7730 -0.0000
vn -0.4714 0.8819 -0.0000
vn -0.2903 0.9569 -0.0000
vn -0.0980 0.9952 -0.0000
vn 0.0980 0.9952 0.0000
vn 0.2903 0.9569 0.0000
vn 0.4714 0.8819 0.0000
vn 0.6344 0.7730 0.0000
vn 0.7730 0.6344 0.0000
vn 0.8819 0.4714 0.0000
vn -0.0000 0.0000 1.0000
vn 0.9569 0.2903 0.0000
vn 0.9952 0.0980 0.0000
vn 0.9620 -0.0947 0.2563
vn 0.9250 -0.2806 0.2563
vn 0.8525 -0.4557 0.2563
vn 0.7472 -0.6132 0.2563
vn 0.6132 -0.7472 0.2563
vn 0.4557 -0.8525 0.2563
vn 0.2806 -0.9250 0.2563
vn 0.0947 -0.9620 0.2563
vn -0.0947 -0.9620 0.2563
vn -0.2806 -0.9250 0.2563
vn -0.4557 -0.8525 0.2563
vn -0.6132 -0.7472 0.2563
vn -0.7472 -0.6132 0.2563
vn -0.8525 -0.4557 0.2563
vn -0.9250 -0.2806 0.2563
vn -0.9620 -0.0947 0.2563
vn -0.9620 0.0947 0.2563
vn -0.9250 0.2806 0.2563
vn -0.8525 0.4557 0.2563
vn -0.7472 0.6132 0.2563
vn -0.6132 0.7472 0.2563
vn -0.4557 0.8525 0.2563
vn -0.2806 0.9250 0.2563
vn -0.0947 0.9620 0.2563
vn 0.0947 0.9620 0.2563
vn 0.2806 0.9250 0.2563
vn 0.4557 0.8525 0.2563
vn 0.6132 0.7472 0.2563
vn 0.7472 0.6132 0.2563
vn 0.8525 0.4557 0.2563
vn 0.9250 0.2806 0.2563
vn 0.9620 0.0947 0.2563
usemtl Material.003
s off
f 1//1 24//1 2//1
f 2//2 24//2 3//2
f 3//3 24//3 4//3
f 4//4 24//4 5//4
f 5//5 24//5 6//5
f 6//6 24//6 7//6
f 7//7 24//7 8//7
f 8//8 24//8 9//8
f 9//9 24//9 10//9
f 10//10 24//10 11//10
f 11//11 24//11 12//11
f 12//12 24//12 13//12
f 13//13 24//13 14//13
f 14//14 24//14 15//14
f 15//15 24//15 16//15
f 16//16 24//16 17//16
f 17//17 24//17 18//17
f 18//18 24//18 19//18
f 19//19 24//19 20//19
f 20//20 24//20 21//20
f 21//21 24//21 22//21
f 22//22 24//22 23//22
f 23//23 24//23 25//23
f 25//24 24//24 26//24
f 26//25 24//25 27//25
f 27//26 24//26 28//26
f 28//27 24//27 29//27
f 29//28 24//28 30//28
f 30//29 24//29 31//29
f 31//30 24//30 32//30
f 32//31 24//31 33//31
f 33//32 24//32 1//32
f 1//33 2//33 3//33 4//33 5//33 6//33 7//33 8//33 9//33 10//33 11//33 12//33 13//33 14//33 15//33 16//33 17//33 18//33 19//33 20//33 21//33 22//33 23//33 25//33 26//33 27//33 28//33 29//33 30//33 31//33 32//33 33//33
usemtl Material.001
f 34//34 35//34 37//34 36//34
f 36//35 37//35 39//35 38//35
f 38//36 39//36 41//36 40//36
f 40//37 41//37 43//37 42//37
f 42//38 43//38 45//38 44//38
f 44//39 45//39 47//39 46//39
f 46//40 47//40 49//40 48//40
f 48//41 49//41 51//41 50//41
f 50//42 51//42 53//42 52//42
f 52//43 53//43 55//43 54//43
f 54//44 55//44 57//44 56//44
f 56//45 57//45 59//45 58//45
f 58//46 59//46 61//46 60//46
f 60//47 61//47 63//47 62//47
f 62//48 63//48 65//48 64//48
f 64//49 65//49 67//49 66//49
f 66//50 67//50 69//50 68//50
f 68//51 69//51 71//51 70//51
f 70//52 71//52 73//52 72//52
f 72//53 73//53 75//53 74//53
f 74//54 75//54 77//54 76//54
f 76//55 77//55 79//55 78//55
f 78//56 79//56 81//56 80//56
f 80//57 81//57 83//57 82//57
f 82//58 83//58 85//58 84//58
f 84//59 85//59 87//59 86//59
f 86//60 87//60 89//60 88//60
f 88//61 89//61 91//61 90//61
f 90//62 91//62 93//62 92//62
f 92//63 93//63 95//63 94//63
f 37//64 35//64 97//64 95//64 93//64 91//64 89//64 87//64 85//64 83//64 81//64 79//64 77//64 75//64 73//64 71//64 69//64 67//64 65//64 63//64 61//64 59//64 57//64 55//64 53//64 51//64 49//64 47//64 45//64 43//64 41//64 39//64
f 94//65 95//65 97//65 96//65
f 96//66 97//66 35//66 34//66
f 34//33 36//33 38//33 40//33 42//33 44//33 46//33 48//33 50//33 52//33 54//33 56//33 58//33 60//33 62//33 64//33 66//33 68//33 70//33 72//33 74//33 76//33 78//33 80//33 82//33 84//33 86//33 88//33 90//33 92//33 94//33 96//33
usemtl Material.002
f 98//67 99//67 101//67 100//67
f 100//68 101//68 103//68 102//68
f 102//69 103//69 105//69 104//69
f 104//70 105//70 107//70 106//70
f 106//71 107//71 109//71 108//71
f 108//72 109//72 111//72 110//72
f 110//73 111//73 113//73 112//73
f 112//74 113//74 115//74 114//74
f 114//75 115//75 117//75 116//75
f 116//76 117//76 119//76 118//76
f 118//77 119//77 121//77 120//77
f 120//78 121//78 123//78 122//78
f 122//79 123//79 125//79 124//79
f 124//80 125//80 127//80 126//80
f 126//81 127//81 129//81 128//81
f 128//82 129//82 131//82 130//82
f 130//83 131//83 133//83 132//83
f 132//84 133//84 135//84 134//84
f 134//85 135//85 137//85 136//85
f 136//86 137//86 139//86 138//86
f 138//87 139//87 141//87 140//87
f 140//88 141//88 143//88 142//88
f 142//89 143//89 145//89 144//89
f 144//90 145//90 147//90 146//90
f 146//91 147//91 149//91 148//91
f 148//92 149//92 151//92 150//92
f 150//93 151//93 153//93 152//93
f 152//94 153//94 155//94 154//94
f 154//95 155//95 157//95 156//95
f 156//96 157//96 159//96 158//96
f 101//64 99//64 161//64 159//64 157//64 155//64 153//64 151//64 149//64 147//64 145//64 143//64 141//64 139//64 137//64 135//64 133//64 131//64 129//64 127//64 125//64 123//64 121//64 119//64 117//64 115//64 113//64 111//64 109//64 107//64 105//64 103//64
f 158//97 159//97 161//97 160//97
f 160//98 161//98 99//98 98//98
f 98//33 100//33 102//33 104//33 106//33 108//33 110//33 112//33 114//33 116//33 118//33 120//33 122//33 124//33 126//33 128//33 130//33 132//33 134//33 136//33 138//33 140//33 142//33 144//33 146//33 148//33 150//33 152//33 154//33 156//33 158//33 160//33
