# Blender v3.0.0 OBJ File: ''
# www.blender.org
mtllib c.mtl
o 0.001
v -0.470487 0.172982 0.895659
v -0.373833 0.108869 0.618191
v -0.374453 0.084000 0.623722
v -0.471106 0.148113 0.901189
v -0.370354 0.059844 0.630731
v -0.467007 0.123956 0.908198
v -0.361694 0.037329 0.638951
v -0.458348 0.101442 0.916417
v -0.348806 0.017320 0.648063
v -0.445460 0.081434 0.925530
v -0.332186 0.000588 0.657719
v -0.428840 0.064701 0.935186
v -0.312471 -0.012226 0.667547
v -0.409125 0.051887 0.945014
v -0.290420 -0.020628 0.677171
v -0.387074 0.043484 0.954637
v -0.266880 -0.024298 0.686218
v -0.363534 0.039815 0.963684
v -0.242756 -0.023091 0.694343
v -0.339410 0.041021 0.971810
v -0.218974 -0.017057 0.701232
v -0.315628 0.047056 0.978699
v -0.196449 -0.006426 0.706622
v -0.293103 0.057687 0.984089
v -0.176046 0.008393 0.710306
v -0.272700 0.072506 0.987773
v -0.158549 0.026832 0.712140
v -0.255203 0.090945 0.989607
v -0.144632 0.048180 0.712056
v -0.241285 0.112292 0.989522
v -0.134827 0.071617 0.710055
v -0.231481 0.135730 0.987521
v -0.129513 0.096245 0.706216
v -0.226167 0.160357 0.983683
v -0.128894 0.121114 0.700686
v -0.225547 0.185226 0.978152
v -0.132993 0.145270 0.693676
v -0.229646 0.209383 0.971142
v -0.141652 0.167785 0.685456
v -0.238306 0.231898 0.962924
v -0.154540 0.187793 0.676345
v -0.251194 0.251905 0.953811
v -0.171161 0.204525 0.666689
v -0.267814 0.268638 0.944155
v -0.190875 0.217340 0.656860
v -0.287529 0.281452 0.934326
v -0.212926 0.225742 0.647237
v -0.309580 0.289855 0.924704
v -0.236466 0.229411 0.638189
v -0.333120 0.293524 0.915656
v -0.260591 0.228205 0.630065
v -0.357244 0.292318 0.907531
v -0.284372 0.222171 0.623175
v -0.381026 0.286283 0.900641
v -0.306898 0.211540 0.617785
v -0.403551 0.275652 0.895251
v -0.327300 0.196720 0.614102
v -0.423954 0.260832 0.891569
v -0.344797 0.178282 0.612267
v -0.441451 0.242394 0.889733
v -0.358715 0.156934 0.612352
v -0.455369 0.221047 0.889818
v -0.368519 0.133496 0.614352
v -0.465173 0.197608 0.891819
v 0.470487 0.172982 0.895658
v 0.373833 0.108870 0.618192
v 0.368519 0.133496 0.614352
v 0.465173 0.197609 0.891818
v 0.358715 0.156934 0.612352
v 0.455368 0.221047 0.889818
v 0.344797 0.178282 0.612267
v 0.441450 0.242394 0.889733
v 0.327300 0.196720 0.614102
v 0.423954 0.260833 0.891568
v 0.306898 0.211540 0.617785
v 0.403551 0.275652 0.895251
v 0.284372 0.222171 0.623175
v 0.381026 0.286283 0.900641
v 0.260591 0.228205 0.630065
v 0.357244 0.292318 0.907531
v 0.236466 0.229412 0.638190
v 0.333120 0.293524 0.915656
v 0.212926 0.225742 0.647238
v 0.309580 0.289855 0.924704
v 0.190875 0.217340 0.656860
v 0.287529 0.281452 0.934326
v 0.171161 0.204525 0.666689
v 0.267814 0.268638 0.944155
v 0.154540 0.187793 0.676345
v 0.251193 0.251905 0.953811
v 0.141652 0.167785 0.685457
v 0.238306 0.231897 0.962923
v 0.132993 0.145270 0.693676
v 0.229646 0.209383 0.971142
v 0.128894 0.121114 0.700686
v 0.225547 0.185226 0.978152
v 0.129513 0.096245 0.706216
v 0.226167 0.160357 0.983682
v 0.134827 0.071617 0.710055
v 0.231481 0.135730 0.987521
v 0.144632 0.048180 0.712056
v 0.241285 0.112292 0.989522
v 0.158550 0.026831 0.712141
v 0.255203 0.090944 0.989607
v 0.176046 0.008393 0.710306
v 0.272700 0.072506 0.987772
v 0.196449 -0.006426 0.706623
v 0.293103 0.057687 0.984089
v 0.218974 -0.017058 0.701233
v 0.315628 0.047056 0.978699
v 0.242756 -0.023091 0.694343
v 0.339410 0.041021 0.971809
v 0.266881 -0.024297 0.686218
v 0.363534 0.039815 0.963684
v 0.290421 -0.020628 0.677171
v 0.387074 0.043484 0.954637
v 0.312472 -0.012226 0.667547
v 0.409125 0.051887 0.945013
v 0.332186 0.000588 0.657719
v 0.428840 0.064701 0.935185
v 0.348807 0.017320 0.648063
v 0.445460 0.081434 0.925530
v 0.361694 0.037329 0.638951
v 0.458348 0.101442 0.916417
v 0.370354 0.059844 0.630732
v 0.467007 0.123957 0.908198
v 0.374453 0.084001 0.623723
v 0.471106 0.148113 0.901189
vt 0.000000 0.000000
vt 1.000000 0.000000
vt 1.000000 1.000000
vt 0.000000 1.000000
vt 0.000000 0.000000
vt 1.000000 0.000000
vt 1.000000 1.000000
vt 0.000000 1.000000
vt 0.000000 0.000000
vt 1.000000 0.000000
vt 1.000000 1.000000
vt 0.000000 1.000000
vt 0.000000 0.000000
vt 1.000000 0.000000
vt 1.000000 1.000000
vt 0.000000 1.000000
vt 0.000000 0.000000
vt 1.000000 0.000000
vt 1.000000 1.000000
vt 0.000000 1.000000
vt 0.000000 0.000000
vt 1.000000 0.000000
vt 1.000000 1.000000
vt 0.000000 1.000000
vt 0.000000 0.000000
vt 1.000000 0.000000
vt 1.000000 1.000000
vt 0.000000 1.000000
vt 0.000000 0.000000
vt 1.000000 0.000000
vt 1.000000 1.000000
vt 0.000000 1.000000
vt 0.000000 0.000000
vt 1.000000 0.000000
vt 1.000000 1.000000
vt 0.000000 1.000000
vt 0.000000 0.000000
vt 1.000000 0.000000
vt 1.000000 1.000000
vt 0.000000 1.000000
vt 0.000000 0.000000
vt 1.000000 0.000000
vt 1.000000 1.000000
vt 0.000000 1.000000
vt 0.000000 0.000000
vt 1.000000 0.000000
vt 1.000000 1.000000
vt 0.000000 1.000000
vt 0.000000 0.000000
vt 1.000000 0.000000
vt 1.000000 1.000000
vt 0.000000 1.000000
vt 0.000000 0.000000
vt 1.000000 0.000000
vt 1.000000 1.000000
vt 0.000000 1.000000
vt 0.000000 0.000000
vt 1.000000 0.000000
vt 1.000000 1.000000
vt 0.000000 1.000000
vt 0.000000 0.000000
vt 1.000000 0.000000
vt 1.000000 1.000000
vt 0.000000 1.000000
vt 0.000000 0.000000
vt 1.000000 0.000000
vt 1.000000 1.000000
vt 0.000000 1.000000
vt 0.000000 0.000000
vt 1.000000 0.000000
vt 1.000000 1.000000
vt 0.000000 1.000000
vt 0.000000 0.000000
vt 1.000000 0.000000
vt 1.000000 1.000000
vt 0.000000 1.000000
vt 0.000000 0.000000
vt 1.000000 0.000000
vt 1.000000 1.000000
vt 0.000000 1.000000
vt 0.000000 0.000000
vt 1.000000 0.000000
vt 1.000000 1.000000
vt 0.000000 1.000000
vt 0.000000 0.000000
vt 1.000000 0.000000
vt 1.000000 1.000000
vt 0.000000 1.000000
vt 0.000000 0.000000
vt 1.000000 0.000000
vt 1.000000 1.000000
vt 0.000000 1.000000
vt 0.000000 0.000000
vt 1.000000 0.000000
vt 1.000000 1.000000
vt 0.000000 1.000000
vt 0.000000 0.000000
vt 1.000000 0.000000
vt 1.000000 1.000000
vt 0.000000 1.000000
vt 0.000000 0.000000
vt 1.000000 0.000000
vt 1.000000 1.000000
vt 0.000000 1.000000
vt 0.000000 0.000000
vt 1.000000 0.000000
vt 1.000000 1.000000
vt 0.000000 1.000000
vt 0.000000 0.000000
vt 1.000000 0.000000
vt 1.000000 1.000000
vt 0.000000 1.000000
vt 0.000000 0.000000
vt 1.000000 0.000000
vt 1.000000 1.000000
vt 0.000000 1.000000
vt 0.000000 0.000000
vt 1.000000 0.000000
vt 1.000000 1.000000
vt 0.000000 1.000000
vt 0.500000 1.000000
vt 0.597545 0.990393
vt 0.691342 0.961940
vt 0.777785 0.915735
vt 0.853553 0.853553
vt 0.915735 0.777785
vt 0.961940 0.691342
vt 0.990393 0.597545
vt 1.000000 0.500000
vt 0.990393 0.402455
vt 0.961940 0.308658
vt 0.915735 0.222215
vt 0.853553 0.146447
vt 0.777785 0.084265
vt 0.691342 0.038060
vt 0.597545 0.009607
vt 0.500000 0.000000
vt 0.402455 0.009607
vt 0.308658 0.038060
vt 0.222215 0.084265
vt 0.146446 0.146447
vt 0.084265 0.222215
vt 0.038060 0.308659
vt 0.009607 0.402455
vt 0.000000 0.500000
vt 0.009607 0.597546
vt 0.038060 0.691342
vt 0.084266 0.777786
vt 0.146447 0.853554
vt 0.222215 0.915735
vt 0.308659 0.961940
vt 0.402456 0.990393
vt 0.000000 0.000000
vt 1.000000 0.000000
vt 1.000000 1.000000
vt 0.000000 1.000000
vt 0.000000 0.000000
vt 1.000000 0.000000
vt 1.000000 1.000000
vt 0.000000 1.000000
vt 0.500000 1.000000
vt 0.597545 0.990393
vt 0.691342 0.961940
vt 0.777785 0.915735
vt 0.853553 0.853553
vt 0.915735 0.777785
vt 0.961940 0.691342
vt 0.990393 0.597545
vt 1.000000 0.500000
vt 0.990393 0.402455
vt 0.961940 0.308658
vt 0.915735 0.222215
vt 0.853553 0.146447
vt 0.777785 0.084265
vt 0.691342 0.038060
vt 0.597545 0.009607
vt 0.500000 0.000000
vt 0.402455 0.009607
vt 0.308658 0.038060
vt 0.222215 0.084265
vt 0.146446 0.146447
vt 0.084265 0.222215
vt 0.038060 0.308659
vt 0.009607 0.402455
vt 0.000000 0.500000
vt 0.009607 0.597546
vt 0.038060 0.691342
vt 0.084266 0.777786
vt 0.146447 0.853554
vt 0.222215 0.915735
vt 0.308659 0.961940
vt 0.402456 0.990393
vt 0.000000 0.000000
vt 1.000000 0.000000
vt 1.000000 1.000000
vt 0.000000 1.000000
vt 0.000000 0.000000
vt 1.000000 0.000000
vt 1.000000 1.000000
vt 0.000000 1.000000
vt 0.000000 0.000000
vt 1.000000 0.000000
vt 1.000000 1.000000
vt 0.000000 1.000000
vt 0.000000 0.000000
vt 1.000000 0.000000
vt 1.000000 1.000000
vt 0.000000 1.000000
vt 0.000000 0.000000
vt 1.000000 0.000000
vt 1.000000 1.000000
vt 0.000000 1.000000
vt 0.000000 0.000000
vt 1.000000 0.000000
vt 1.000000 1.000000
vt 0.000000 1.000000
vt 0.000000 0.000000
vt 1.000000 0.000000
vt 1.000000 1.000000
vt 0.000000 1.000000
vt 0.000000 0.000000
vt 1.000000 0.000000
vt 1.000000 1.000000
vt 0.000000 1.000000
vt 0.000000 0.000000
vt 1.000000 0.000000
vt 1.000000 1.000000
vt 0.000000 1.000000
vt 0.000000 0.000000
vt 1.000000 0.000000
vt 1.000000 1.000000
vt 0.000000 1.000000
vt 0.000000 0.000000
vt 1.000000 0.000000
vt 1.000000 1.000000
vt 0.000000 1.000000
vt 0.000000 0.000000
vt 1.000000 0.000000
vt 1.000000 1.000000
vt 0.000000 1.000000
vt 0.000000 0.000000
vt 1.000000 0.000000
vt 1.000000 1.000000
vt 0.000000 1.000000
vt 0.000000 0.000000
vt 1.000000 0.000000
vt 1.000000 1.000000
vt 0.000000 1.000000
vt 0.000000 0.000000
vt 1.000000 0.000000
vt 1.000000 1.000000
vt 0.000000 1.000000
vt 0.000000 0.000000
vt 1.000000 0.000000
vt 1.000000 1.000000
vt 0.000000 1.000000
vt 0.000000 0.000000
vt 1.000000 0.000000
vt 1.000000 1.000000
vt 0.000000 1.000000
vt 0.000000 0.000000
vt 1.000000 0.000000
vt 1.000000 1.000000
vt 0.000000 1.000000
vt 0.000000 0.000000
vt 1.000000 0.000000
vt 1.000000 1.000000
vt 0.000000 1.000000
vt 0.000000 0.000000
vt 1.000000 0.000000
vt 1.000000 1.000000
vt 0.000000 1.000000
vt 0.000000 0.000000
vt 1.000000 0.000000
vt 1.000000 1.000000
vt 0.000000 1.000000
vt 0.000000 0.000000
vt 1.000000 0.000000
vt 1.000000 1.000000
vt 0.000000 1.000000
vt 0.000000 0.000000
vt 1.000000 0.000000
vt 1.000000 1.000000
vt 0.000000 1.000000
vt 0.000000 0.000000
vt 1.000000 0.000000
vt 1.000000 1.000000
vt 0.000000 1.000000
vt 0.000000 0.000000
vt 1.000000 0.000000
vt 1.000000 1.000000
vt 0.000000 1.000000
vt 0.000000 0.000000
vt 1.000000 0.000000
vt 1.000000 1.000000
vt 0.000000 1.000000
vt 0.000000 0.000000
vt 1.000000 0.000000
vt 1.000000 1.000000
vt 0.000000 1.000000
vt 0.000000 0.000000
vt 1.000000 0.000000
vt 1.000000 1.000000
vt 0.000000 1.000000
vt 0.000000 0.000000
vt 1.000000 0.000000
vt 1.000000 1.000000
vt 0.000000 1.000000
vt 0.000000 0.000000
vt 1.000000 0.000000
vt 1.000000 1.000000
vt 0.000000 1.000000
vt 0.500000 1.000000
vt 0.597545 0.990393
vt 0.691342 0.961940
vt 0.777785 0.915735
vt 0.853553 0.853553
vt 0.915735 0.777785
vt 0.961940 0.691342
vt 0.990393 0.597545
vt 1.000000 0.500000
vt 0.990393 0.402455
vt 0.961940 0.308658
vt 0.915735 0.222215
vt 0.853553 0.146447
vt 0.777785 0.084265
vt 0.691342 0.038060
vt 0.597545 0.009607
vt 0.500000 0.000000
vt 0.402455 0.009607
vt 0.308658 0.038060
vt 0.222215 0.084265
vt 0.146446 0.146447
vt 0.084265 0.222215
vt 0.038060 0.308659
vt 0.009607 0.402455
vt 0.000000 0.500000
vt 0.009607 0.597546
vt 0.038060 0.691342
vt 0.084266 0.777786
vt 0.146447 0.853554
vt 0.222215 0.915735
vt 0.308659 0.961940
vt 0.402456 0.990393
vt 0.000000 0.000000
vt 1.000000 0.000000
vt 1.000000 1.000000
vt 0.000000 1.000000
vt 0.000000 0.000000
vt 1.000000 0.000000
vt 1.000000 1.000000
vt 0.000000 1.000000
vt 0.500000 1.000000
vt 0.597545 0.990393
vt 0.691342 0.961940
vt 0.777785 0.915735
vt 0.853553 0.853553
vt 0.915735 0.777785
vt 0.961940 0.691342
vt 0.990393 0.597545
vt 1.000000 0.500000
vt 0.990393 0.402455
vt 0.961940 0.308658
vt 0.915735 0.222215
vt 0.853553 0.146447
vt 0.777785 0.084265
vt 0.691342 0.038060
vt 0.597545 0.009607
vt 0.500000 0.000000
vt 0.402455 0.009607
vt 0.308658 0.038060
vt 0.222215 0.084265
vt 0.146446 0.146447
vt 0.084265 0.222215
vt 0.038060 0.308659
vt 0.009607 0.402455
vt 0.000000 0.500000
vt 0.009607 0.597546
vt 0.038060 0.691342
vt 0.084266 0.777786
vt 0.146447 0.853554
vt 0.222215 0.915735
vt 0.308659 0.961940
vt 0.402456 0.990393
vn -0.9466 -0.0473 -0.3188
vn -0.9332 -0.2368 -0.2704
vn -0.8839 -0.4172 -0.2115
vn -0.8006 -0.5815 -0.1445
vn -0.6866 -0.7235 -0.0720
vn -0.5461 -0.8377 0.0033
vn -0.3847 -0.9197 0.0785
vn -0.2085 -0.9663 0.1506
vn -0.0243 -0.9759 0.2170
vn 0.1608 -0.9479 0.2750
vn 0.3398 -0.8835 0.3225
vn 0.5057 -0.7851 0.3576
vn 0.6522 -0.6566 0.3789
vn 0.7736 -0.5028 0.3857
vn 0.8653 -0.3297 0.3776
vn 0.9237 -0.1440 0.3550
vn 0.9466 0.0473 0.3188
vn 0.9332 0.2368 0.2704
vn 0.8839 0.4172 0.2115
vn 0.8006 0.5815 0.1445
vn 0.6866 0.7235 0.0720
vn 0.5461 0.8377 -0.0033
vn 0.3847 0.9197 -0.0785
vn 0.2085 0.9663 -0.1507
vn 0.0243 0.9759 -0.2170
vn -0.1608 0.9479 -0.2750
vn -0.3398 0.8835 -0.3225
vn -0.5057 0.7851 -0.3576
vn -0.6522 0.6566 -0.3789
vn -0.7736 0.5028 -0.3857
vn 0.3214 -0.2132 -0.9226
vn -0.8653 0.3297 -0.3776
vn -0.9237 0.1440 -0.3550
vn -0.3214 0.2132 0.9226
vn 0.9237 0.1440 -0.3550
vn 0.8653 0.3297 -0.3776
vn 0.7736 0.5028 -0.3857
vn 0.6522 0.6566 -0.3789
vn 0.5057 0.7851 -0.3576
vn 0.3398 0.8835 -0.3225
vn 0.1608 0.9479 -0.2750
vn -0.0243 0.9759 -0.2170
vn -0.2085 0.9663 -0.1506
vn -0.3847 0.9197 -0.0785
vn -0.5461 0.8377 -0.0033
vn -0.6865 0.7235 0.0720
vn -0.8006 0.5815 0.1445
vn -0.8839 0.4172 0.2115
vn -0.9332 0.2368 0.2704
vn -0.9466 0.0473 0.3188
vn -0.9237 -0.1440 0.3550
vn -0.8653 -0.3297 0.3776
vn -0.7736 -0.5028 0.3857
vn -0.6522 -0.6566 0.3789
vn -0.5057 -0.7851 0.3576
vn -0.3398 -0.8835 0.3225
vn -0.1608 -0.9479 0.2750
vn 0.0243 -0.9759 0.2170
vn 0.2085 -0.9663 0.1507
vn 0.3847 -0.9197 0.0785
vn 0.5461 -0.8377 0.0033
vn 0.6866 -0.7235 -0.0720
vn 0.8006 -0.5815 -0.1445
vn 0.8839 -0.4172 -0.2115
vn -0.3214 -0.2132 -0.9226
vn 0.9332 -0.2368 -0.2704
vn 0.9466 -0.0473 -0.3188
vn 0.3214 0.2132 0.9226
usemtl 0
s 1
f 1/1/1 2/2/1 3/3/1 4/4/1
f 4/5/2 3/6/2 5/7/2 6/8/2
f 6/9/3 5/10/3 7/11/3 8/12/3
f 8/13/4 7/14/4 9/15/4 10/16/4
f 10/17/5 9/18/5 11/19/5 12/20/5
f 12/21/6 11/22/6 13/23/6 14/24/6
f 14/25/7 13/26/7 15/27/7 16/28/7
f 16/29/8 15/30/8 17/31/8 18/32/8
f 18/33/9 17/34/9 19/35/9 20/36/9
f 20/37/10 19/38/10 21/39/10 22/40/10
f 22/41/11 21/42/11 23/43/11 24/44/11
f 24/45/12 23/46/12 25/47/12 26/48/12
f 26/49/13 25/50/13 27/51/13 28/52/13
f 28/53/14 27/54/14 29/55/14 30/56/14
f 30/57/15 29/58/15 31/59/15 32/60/15
f 32/61/16 31/62/16 33/63/16 34/64/16
f 34/65/17 33/66/17 35/67/17 36/68/17
f 36/69/18 35/70/18 37/71/18 38/72/18
f 38/73/19 37/74/19 39/75/19 40/76/19
f 40/77/20 39/78/20 41/79/20 42/80/20
f 42/81/21 41/82/21 43/83/21 44/84/21
f 44/85/22 43/86/22 45/87/22 46/88/22
f 46/89/23 45/90/23 47/91/23 48/92/23
f 48/93/24 47/94/24 49/95/24 50/96/24
f 50/97/25 49/98/25 51/99/25 52/100/25
f 52/101/26 51/102/26 53/103/26 54/104/26
f 54/105/27 53/106/27 55/107/27 56/108/27
f 56/109/28 55/110/28 57/111/28 58/112/28
f 58/113/29 57/114/29 59/115/29 60/116/29
f 60/117/30 59/118/30 61/119/30 62/120/30
f 3/121/31 2/122/31 63/123/31 61/124/31 59/125/31 57/126/31 55/127/31 53/128/31 51/129/31 49/130/31 47/131/31 45/132/31 43/133/31 41/134/31 39/135/31 37/136/31 35/137/31 33/138/31 31/139/31 29/140/31 27/141/31 25/142/31 23/143/31 21/144/31 19/145/31 17/146/31 15/147/31 13/148/31 11/149/31 9/150/31 7/151/31 5/152/31
f 62/153/32 61/154/32 63/155/32 64/156/32
f 64/157/33 63/158/33 2/159/33 1/160/33
f 1/161/34 4/162/34 6/163/34 8/164/34 10/165/34 12/166/34 14/167/34 16/168/34 18/169/34 20/170/34 22/171/34 24/172/34 26/173/34 28/174/34 30/175/34 32/176/34 34/177/34 36/178/34 38/179/34 40/180/34 42/181/34 44/182/34 46/183/34 48/184/34 50/185/34 52/186/34 54/187/34 56/188/34 58/189/34 60/190/34 62/191/34 64/192/34
f 65/193/35 66/194/35 67/195/35 68/196/35
f 68/197/36 67/198/36 69/199/36 70/200/36
f 70/201/37 69/202/37 71/203/37 72/204/37
f 72/205/38 71/206/38 73/207/38 74/208/38
f 74/209/39 73/210/39 75/211/39 76/212/39
f 76/213/40 75/214/40 77/215/40 78/216/40
f 78/217/41 77/218/41 79/219/41 80/220/41
f 80/221/42 79/222/42 81/223/42 82/224/42
f 82/225/43 81/226/43 83/227/43 84/228/43
f 84/229/44 83/230/44 85/231/44 86/232/44
f 86/233/45 85/234/45 87/235/45 88/236/45
f 88/237/46 87/238/46 89/239/46 90/240/46
f 90/241/47 89/242/47 91/243/47 92/244/47
f 92/245/48 91/246/48 93/247/48 94/248/48
f 94/249/49 93/250/49 95/251/49 96/252/49
f 96/253/50 95/254/50 97/255/50 98/256/50
f 98/257/51 97/258/51 99/259/51 100/260/51
f 100/261/52 99/262/52 101/263/52 102/264/52
f 102/265/53 101/266/53 103/267/53 104/268/53
f 104/269/54 103/270/54 105/271/54 106/272/54
f 106/273/55 105/274/55 107/275/55 108/276/55
f 108/277/56 107/278/56 109/279/56 110/280/56
f 110/281/57 109/282/57 111/283/57 112/284/57
f 112/285/58 111/286/58 113/287/58 114/288/58
f 114/289/59 113/290/59 115/291/59 116/292/59
f 116/293/60 115/294/60 117/295/60 118/296/60
f 118/297/61 117/298/61 119/299/61 120/300/61
f 120/301/62 119/302/62 121/303/62 122/304/62
f 122/305/63 121/306/63 123/307/63 124/308/63
f 124/309/64 123/310/64 125/311/64 126/312/64
f 67/313/65 66/314/65 127/315/65 125/316/65 123/317/65 121/318/65 119/319/65 117/320/65 115/321/65 113/322/65 111/323/65 109/324/65 107/325/65 105/326/65 103/327/65 101/328/65 99/329/65 97/330/65 95/331/65 93/332/65 91/333/65 89/334/65 87/335/65 85/336/65 83/337/65 81/338/65 79/339/65 77/340/65 75/341/65 73/342/65 71/343/65 69/344/65
f 126/345/66 125/346/66 127/347/66 128/348/66
f 128/349/67 127/350/67 66/351/67 65/352/67
f 65/353/68 68/354/68 70/355/68 72/356/68 74/357/68 76/358/68 78/359/68 80/360/68 82/361/68 84/362/68 86/363/68 88/364/68 90/365/68 92/366/68 94/367/68 96/368/68 98/369/68 100/370/68 102/371/68 104/372/68 106/373/68 108/374/68 110/375/68 112/376/68 114/377/68 116/378/68 118/379/68 120/380/68 122/381/68 124/382/68 126/383/68 128/384/68
